<svg width="916" height="571" viewBox="0 0 916 571" fill="none" xmlns="http://www.w3.org/2000/svg">
<path d="M696.351 508.04C810.895 508.04 903.752 415.156 903.752 300.577C903.752 185.998 810.895 93.1133 696.351 93.1133C581.806 93.1133 488.949 185.998 488.949 300.577C488.949 415.156 581.806 508.04 696.351 508.04Z" fill="#F2F2F2"/>
<path d="M112.524 158.456C156.268 158.456 191.729 122.985 191.729 79.2282C191.729 35.4717 156.268 0 112.524 0C68.7809 0 33.3198 35.4717 33.3198 79.2282C33.3198 122.985 68.7809 158.456 112.524 158.456Z" fill="#FF6584"/>
<path d="M254.602 425.545C369.147 425.545 462.003 332.66 462.003 218.081C462.003 103.502 369.147 10.6177 254.602 10.6177C140.058 10.6177 47.2009 103.502 47.2009 218.081C47.2009 332.66 140.058 425.545 254.602 425.545Z" fill="#F2F2F2"/>
<path d="M244.804 436.98C370.622 436.98 472.619 431.495 472.619 424.728C472.619 417.962 370.622 412.477 244.804 412.477C118.985 412.477 16.989 417.962 16.989 424.728C16.989 431.495 118.985 436.98 244.804 436.98Z" fill="#3F3D56"/>
<path opacity="0.1" d="M199.077 433.601C293.329 433.601 369.734 429.818 369.734 425.151C369.734 420.485 293.329 416.702 199.077 416.702C104.826 416.702 28.4204 420.485 28.4204 425.151C28.4204 429.818 104.826 433.601 199.077 433.601Z" fill="black"/>
<path d="M688.185 523.559C814.004 523.559 916 517.526 916 510.082C916 502.639 814.004 496.605 688.185 496.605C562.367 496.605 460.37 502.639 460.37 510.082C460.37 517.526 562.367 523.559 688.185 523.559Z" fill="#3F3D56"/>
<path opacity="0.1" d="M642.459 519.842C736.71 519.842 813.116 515.681 813.116 510.547C813.116 505.414 736.71 501.253 642.459 501.253C548.208 501.253 471.802 505.414 471.802 510.547C471.802 515.681 548.208 519.842 642.459 519.842Z" fill="black"/>
<path d="M327.354 485.987C407.645 485.987 472.733 482.696 472.733 478.636C472.733 474.576 407.645 471.285 327.354 471.285C247.063 471.285 181.974 474.576 181.974 478.636C181.974 482.696 247.063 485.987 327.354 485.987Z" fill="#3F3D56"/>
<path d="M70.1433 457.68C108.882 457.68 140.287 456.092 140.287 454.133C140.287 452.174 108.882 450.586 70.1433 450.586C31.4042 450.586 0 452.174 0 454.133C0 456.092 31.4042 457.68 70.1433 457.68Z" fill="#3F3D56"/>
<path d="M778.103 571C850.203 571 908.651 568.045 908.651 564.399C908.651 560.753 850.203 557.798 778.103 557.798C706.004 557.798 647.556 560.753 647.556 564.399C647.556 568.045 706.004 571 778.103 571Z" fill="#3F3D56"/>
<path d="M764.124 353.668H502.831V508.857H764.124V353.668Z" fill="#3F3D56"/>
<path d="M586.934 491.705C619.404 491.705 645.725 465.376 645.725 432.896C645.725 400.417 619.404 374.088 586.934 374.088C554.465 374.088 528.143 400.417 528.143 432.896C528.143 465.376 554.465 491.705 586.934 491.705Z" fill="#9500E6"/>
<path d="M683.286 378.172H663.689V397.775H683.286V378.172Z" fill="#9500E6"/>
<path opacity="0.5" d="M707.782 378.172H688.185V397.775H707.782V378.172Z" fill="#9500E6"/>
<path opacity="0.2" d="M732.278 378.172H712.681V397.775H732.278V378.172Z" fill="#9500E6"/>
<path d="M683.286 402.675H663.689V422.278H683.286V402.675Z" fill="#2F2E41"/>
<path opacity="0.5" d="M707.782 402.675H688.185V422.278H707.782V402.675Z" fill="#2F2E41"/>
<path opacity="0.2" d="M732.278 402.675H712.681V422.278H732.278V402.675Z" fill="#2F2E41"/>
<path d="M683.286 427.179H663.689V446.782H683.286V427.179Z" fill="#FF6584"/>
<path opacity="0.5" d="M707.782 427.179H688.185V446.782H707.782V427.179Z" fill="#FF6584"/>
<path opacity="0.2" d="M732.278 427.179H712.681V446.782H732.278V427.179Z" fill="#FF6584"/>
<path opacity="0.5" d="M586.934 374.088V491.705C619.404 491.705 647.358 465.375 647.358 432.896C647.358 400.417 619.404 374.088 586.934 374.088Z" fill="#3F3D56"/>
<path d="M820.057 364.695C820.057 364.695 854.351 380.214 842.103 398.183C829.855 416.152 793.111 450.457 792.294 457.808C791.478 465.159 786.578 471.694 786.578 471.694C786.578 471.694 770.248 454.541 771.881 452.908C773.514 451.274 789.845 435.755 790.661 431.671C791.478 427.587 815.974 395.733 815.974 395.733L793.927 376.13L820.057 364.695Z" fill="#FFB9B9"/>
<path opacity="0.1" d="M820.057 364.695C820.057 364.695 854.351 380.214 842.103 398.183C829.855 416.152 793.111 450.457 792.294 457.808C791.478 465.159 786.578 471.694 786.578 471.694C786.578 471.694 770.248 454.541 771.881 452.908C773.514 451.274 789.845 435.755 790.661 431.671C791.478 427.587 815.974 395.733 815.974 395.733L793.927 376.13L820.057 364.695Z" fill="black"/>
<path d="M776.78 399C776.78 399 800.46 408.801 798.826 424.32C797.193 439.839 827.405 483.946 827.405 483.946C827.405 483.946 830.672 494.564 829.855 497.831C829.038 501.098 851.085 500.281 851.085 500.281V492.93C851.085 492.93 833.938 463.526 832.305 455.358C830.672 447.19 820.873 415.336 820.873 415.336C820.873 415.336 817.607 386.748 801.276 386.748C796.522 386.748 791.834 387.855 787.582 389.982C783.331 392.108 779.632 395.196 776.78 399V399Z" fill="#FFB9B9"/>
<path d="M778.005 325.081C778.005 325.081 826.997 365.103 825.364 368.37C823.731 371.637 800.051 383.889 795.969 384.706C791.886 385.523 762.998 325.081 762.998 325.081H778.005Z" fill="#2F2E41"/>
<path opacity="0.1" d="M778.005 325.081C778.005 325.081 826.997 365.103 825.364 368.37C823.731 371.637 800.051 383.889 795.969 384.706C791.886 385.523 762.998 325.081 762.998 325.081H778.005Z" fill="black"/>
<path d="M724.93 333.248C724.93 333.248 720.03 355.302 733.095 364.286C746.16 373.271 768.206 408.393 770.656 408.393C773.105 408.393 808.217 389.607 806.584 386.339C804.95 383.072 786.987 354.485 786.987 354.485L781.271 324.264C781.271 324.264 731.462 322.63 724.93 333.248Z" fill="#2F2E41"/>
<path d="M778.005 261.372L785.353 308.745L798.418 342.233C798.418 342.233 818.015 362.653 806.583 364.287C795.152 365.92 788.62 342.233 788.62 342.233L778.005 322.631V261.372Z" fill="#FFB9B9"/>
<path opacity="0.1" d="M778.005 261.372L785.353 308.745L798.418 342.233C798.418 342.233 818.015 362.653 806.583 364.287C795.152 365.92 788.62 342.233 788.62 342.233L778.005 322.631V261.372Z" fill="black"/>
<path d="M750.651 208.689C750.651 208.689 750.651 225.841 744.935 227.475C739.219 229.109 767.798 251.162 767.798 251.162C767.798 251.162 764.532 222.574 775.963 215.223L750.651 208.689Z" fill="#FFB9B9"/>
<path opacity="0.1" d="M750.651 208.689C750.651 208.689 750.651 225.841 744.935 227.475C739.219 229.109 767.798 251.162 767.798 251.162C767.798 251.162 764.532 222.574 775.963 215.223L750.651 208.689Z" fill="black"/>
<path d="M763.715 222.574C774.087 222.574 782.496 214.163 782.496 203.788C782.496 193.413 774.087 185.002 763.715 185.002C753.343 185.002 744.935 193.413 744.935 203.788C744.935 214.163 753.343 222.574 763.715 222.574Z" fill="#FFB9B9"/>
<path d="M764.532 242.994C764.532 242.994 747.384 221.757 744.935 222.574C742.485 223.391 724.521 241.36 722.888 247.078C721.255 252.795 717.989 293.635 720.439 301.802C722.888 309.97 722.888 331.207 722.072 332.84C721.255 334.474 716.356 338.558 721.255 338.558C726.154 338.558 743.302 326.306 754.733 328.756C766.165 331.207 781.679 327.94 782.496 326.306C783.312 324.672 781.679 282.2 782.496 278.932C783.312 275.665 780.863 259.33 780.046 256.062C779.229 252.795 779.229 239.727 771.064 236.46L767.582 236.115L767.387 244.195L764.532 242.994Z" fill="#9500E6"/>
<path d="M728.604 285.467C728.604 285.467 730.237 310.787 742.485 321.405C754.733 332.024 780.863 349.993 782.496 353.26C784.129 356.527 799.643 373.68 802.909 366.329C803.857 364.037 804.085 361.511 803.564 359.086C803.09 356.676 802.128 354.389 800.737 352.364C799.346 350.34 797.557 348.621 795.477 347.314L788.211 342.642L752.284 305.07L750.651 285.467H728.604Z" fill="#FFB9B9"/>
<path d="M775.555 450.049C775.555 450.049 766.165 448.007 762.899 453.724C759.632 459.442 766.165 474.961 766.165 474.961C766.165 474.961 784.945 514.167 788.211 509.266C791.478 504.365 785.762 486.396 785.762 486.396C785.762 486.396 793.927 468.427 790.661 467.61C787.395 466.793 775.555 459.85 775.555 450.049Z" fill="#2F2E41"/>
<path d="M833.121 497.014C833.121 497.014 828.222 494.564 827.405 497.014C826.589 499.465 821.69 511.716 827.405 513.35C833.121 514.984 889.462 516.617 887.829 513.35C886.196 510.083 877.214 505.999 871.499 504.365C865.783 502.732 851.085 490.48 851.085 490.48C851.085 490.48 842.92 501.098 833.121 497.014Z" fill="#2F2E41"/>
<path d="M782.634 188.878C782.281 187.693 781.505 186.679 780.453 186.03C780.507 184.76 780.351 183.491 779.992 182.272C778.792 178.723 775.949 178.926 773.267 177.358C772.104 176.677 772.176 176.075 771.57 174.957C770.776 173.492 769.587 172.278 768.138 171.455C766.418 170.358 764.601 169.229 762.566 169.09C758.288 168.799 755.008 172.823 750.919 174.115C749.117 174.684 747.181 174.708 745.369 175.246C743.557 175.784 741.75 177.07 741.48 178.941C741.355 179.805 741.575 180.691 741.449 181.554C741.197 183.271 739.692 184.473 738.684 185.884C736.456 189.006 736.71 193.417 738.493 196.813C738.868 197.516 739.298 198.189 739.778 198.825C739.926 200.431 740.387 201.992 741.134 203.42C742.917 206.817 745.983 209.355 749.187 211.464C748.924 210.337 748.765 209.189 748.712 208.034C748.666 207.649 748.716 207.259 748.857 206.897C749.214 206.151 750.157 205.953 750.876 205.544C752.364 204.698 752.948 202.825 752.991 201.113C753.034 199.401 752.671 197.686 752.851 195.982C752.858 195.591 752.947 195.205 753.112 194.85C753.277 194.494 753.515 194.178 753.81 193.92C754.36 193.607 754.987 193.457 755.619 193.489C758.669 193.364 761.856 193.308 764.547 191.865C765.415 191.289 766.347 190.817 767.326 190.459C769.612 189.863 771.949 191.466 773.267 193.428C774.585 195.39 775.242 197.725 776.457 199.752C777.673 201.778 779.774 203.586 782.124 203.346C782.257 203.346 782.388 203.318 782.509 203.264C782.63 203.211 782.738 203.132 782.826 203.033C782.928 202.851 782.973 202.643 782.956 202.435L783.087 193.447C783.196 191.909 783.043 190.364 782.634 188.878Z" fill="#2F2E41"/>
<path d="M735.953 243.811C735.953 243.811 753.917 251.978 753.1 269.131C752.284 286.283 757.999 287.917 744.118 289.551C730.237 291.184 726.971 289.551 726.154 291.184C725.338 292.818 720.439 253.612 723.705 249.528C726.971 245.444 735.953 243.811 735.953 243.811Z" fill="#9500E6"/>
<path d="M374.634 105.366C389.064 105.366 400.763 93.6636 400.763 79.2285C400.763 64.7933 389.064 53.0913 374.634 53.0913C360.203 53.0913 348.504 64.7933 348.504 79.2285C348.504 93.6636 360.203 105.366 374.634 105.366Z" fill="#2F2E41"/>
<path d="M392.189 365.512L377.492 405.534C377.492 405.534 365.243 415.336 372.592 418.603C379.941 421.87 394.639 415.336 394.639 415.336L406.07 385.931L404.437 365.512H392.189Z" fill="#2F2E41"/>
<path opacity="0.1" d="M392.189 365.512L377.492 405.534C377.492 405.534 365.243 415.336 372.592 418.603C379.941 421.87 394.639 415.336 394.639 415.336L406.07 385.931L404.437 365.512H392.189Z" fill="black"/>
<path d="M393.414 128.235L405.662 129.869C405.662 129.869 411.378 174.792 408.928 178.059C406.479 181.326 394.231 194.395 389.331 191.128C384.432 187.861 393.414 128.235 393.414 128.235Z" fill="#575A89"/>
<path d="M276.241 210.322C276.241 210.322 259.093 217.673 255.827 218.49C252.561 219.307 247.662 227.475 253.377 229.108C259.093 230.742 281.14 214.406 281.14 214.406L276.241 210.322Z" fill="#A0616A"/>
<path d="M397.905 381.847L406.887 415.336C406.887 415.336 407.704 427.587 411.786 428.404C415.869 429.221 428.117 424.32 428.117 422.687C428.117 421.053 423.218 407.985 423.218 407.985C423.218 407.985 423.218 398.183 418.319 394.099C413.419 390.015 409.005 376.334 409.005 376.334L397.905 381.847Z" fill="#2F2E41"/>
<path d="M409.337 305.069C410.986 308.917 410.782 336.826 408.977 355.4C408.104 364.425 406.854 371.245 405.254 372.046L393.553 369.122L388.923 367.962L388.801 357.801L388.107 301.802L374.225 243.811V229.108L409.337 232.376L414.905 241.123L415.052 241.36C415.052 241.36 406.887 299.352 409.337 305.069Z" fill="#2F2E41"/>
<path opacity="0.1" d="M401.988 323.039C403.735 325.661 406.65 341.359 408.977 355.4C408.104 364.425 406.854 371.245 405.254 372.046L393.553 369.122C393.373 368.746 393.194 368.354 393.006 367.962C391.511 364.825 390.107 361.362 388.801 357.801L388.107 301.802L374.225 243.811V229.108L409.337 232.376L414.905 241.123L382.391 238.91L389.74 270.764L398.722 304.253C398.722 304.253 398.722 318.138 401.988 323.039Z" fill="black"/>
<path d="M344.013 196.437C344.013 196.437 332.582 221.757 348.913 256.879C359.018 278.736 368.012 301.09 375.859 323.856C375.859 323.856 381.574 350.81 389.74 367.962C397.905 385.115 396.272 385.931 396.272 385.931L409.337 378.58C409.337 378.58 401.988 327.94 398.722 323.039C395.455 318.138 395.455 304.253 395.455 304.253L386.474 270.765L379.125 238.91L415.052 241.36C415.052 241.36 415.052 194.803 398.722 185.819L344.013 196.437Z" fill="#2F2E41"/>
<path d="M357.486 91.48C357.486 91.48 357.486 104.549 353.404 105.365C349.321 106.182 341.155 106.182 338.706 110.266C336.256 114.35 357.486 168.258 357.486 168.258L379.533 154.372L386.882 117.617C386.882 117.617 376.267 111.083 376.267 107.816V93.1136L357.486 91.48Z" fill="#A0616A"/>
<path opacity="0.1" d="M357.486 91.48C357.486 91.48 357.486 104.549 353.404 105.365C349.321 106.182 341.155 106.182 338.706 110.266C336.256 114.35 357.486 168.258 357.486 168.258L379.533 154.372L386.882 117.617C386.882 117.617 376.267 111.083 376.267 107.816V93.1136L357.486 91.48Z" fill="black"/>
<path d="M370.143 105.774C380.966 105.774 389.74 96.9971 389.74 86.1707C389.74 75.3444 380.966 66.5679 370.143 66.5679C359.32 66.5679 350.546 75.3444 350.546 86.1707C350.546 96.9971 359.32 105.774 370.143 105.774Z" fill="#A0616A"/>
<path d="M359.936 151.922C359.936 151.922 352.587 105.365 350.954 105.365C349.321 105.365 326.458 110.266 324.825 111.083C323.192 111.9 317.476 119.251 317.476 119.251L328.907 151.922C328.907 151.922 333.807 174.792 337.073 178.876C340.339 182.96 346.871 194.395 343.605 196.028C340.339 197.662 337.073 200.112 340.339 200.112C343.605 200.112 370.551 195.212 372.184 197.662C373.817 200.112 400.763 188.677 400.763 187.861C400.763 187.044 397.497 148.655 397.497 148.655L405.662 129.869L381.166 112.716L359.936 151.922Z" fill="#575A89"/>
<path d="M325.641 115.167L317.476 119.251C317.476 119.251 294.613 171.525 292.98 172.342C291.347 173.159 283.181 188.678 282.365 191.945C281.548 195.212 279.915 205.83 277.466 207.464C276.152 208.356 274.788 209.174 273.383 209.914C273.383 209.914 278.282 218.082 280.732 218.082C283.181 218.082 291.347 206.647 291.347 206.647C291.347 206.647 309.311 218.082 314.21 209.097C319.109 200.113 331.357 142.938 331.357 142.938L325.641 115.167Z" fill="#575A89"/>
<path d="M389.74 140.079C389.74 140.079 378.308 112.308 371.776 115.575C365.243 118.842 376.675 138.445 384.024 141.712L389.74 140.079Z" fill="#A0616A"/>
<path opacity="0.1" d="M378.308 140.895L389.765 138.305L392.189 150.697C392.189 150.697 402.804 169.483 400.355 177.651C397.905 185.819 383.207 198.887 378.308 191.536C373.409 184.185 369.326 172.75 372.592 166.216C375.858 159.681 380.758 144.162 378.308 140.895Z" fill="black"/>
<path d="M380.758 139.262L392.214 136.671L394.639 149.063C394.639 149.063 405.254 167.85 402.804 176.017C400.355 184.185 385.657 197.254 380.758 189.903C375.858 182.552 371.776 171.117 375.042 164.582C378.308 158.048 383.207 142.529 380.758 139.262Z" fill="#575A89"/>
<path d="M393.196 82.2348C395.396 77.5371 389.235 70.0057 379.434 65.4129C369.633 60.8202 359.904 60.9052 357.704 65.6029C355.504 70.3006 361.666 77.8321 371.467 82.4248C381.268 87.0176 390.996 86.9325 393.196 82.2348Z" fill="#2F2E41"/>
<path d="M390.148 68.6102C396.461 68.6102 401.579 63.4906 401.579 57.1752C401.579 50.8599 396.461 45.7402 390.148 45.7402C383.834 45.7402 378.716 50.8599 378.716 57.1752C378.716 63.4906 383.834 68.6102 390.148 68.6102Z" fill="#2F2E41"/>
<path d="M379.533 53.0913C379.533 50.2709 380.576 47.5502 382.46 45.452C384.344 43.3537 386.936 42.026 389.74 41.7238C388.143 41.5494 386.528 41.7135 384.999 42.2052C383.47 42.6969 382.062 43.5054 380.867 44.5778C379.671 45.6503 378.715 46.9627 378.06 48.4296C377.405 49.8965 377.067 51.4849 377.067 53.0913C377.067 54.6977 377.405 56.286 378.06 57.7529C378.715 59.2198 379.671 60.5322 380.867 61.6047C382.062 62.6771 383.47 63.4856 384.999 63.9773C386.528 64.4691 388.143 64.6331 389.74 64.4587C386.936 64.1565 384.344 62.8288 382.46 60.7305C380.576 58.6323 379.533 55.9116 379.533 53.0913V53.0913Z" fill="#2F2E41"/>
<path d="M338.706 226.25H52.9167V424.728H338.706V226.25Z" fill="#3F3D56"/>
<path d="M113.341 245.853H75.7798V283.425H113.341V245.853Z" fill="#F2F2F2"/>
<path d="M113.341 307.111H75.7798V344.683H113.341V307.111Z" fill="#9500E6"/>
<path d="M113.341 368.37H75.7798V405.942H113.341V368.37Z" fill="#F2F2F2"/>
<path d="M310.127 257.696H131.305V260.963H310.127V257.696Z" fill="#F2F2F2"/>
<path d="M186.829 268.314H131.305V271.581H186.829V268.314Z" fill="#F2F2F2"/>
<path d="M310.127 318.955H131.305V322.222H310.127V318.955Z" fill="#F2F2F2"/>
<path d="M186.829 329.573H131.305V332.84H186.829V329.573Z" fill="#F2F2F2"/>
<path d="M310.127 380.214H131.305V383.481H310.127V380.214Z" fill="#F2F2F2"/>
<path d="M186.829 390.832H131.305V394.099H186.829V390.832Z" fill="#F2F2F2"/>
<path d="M808.217 546.375C808.217 563.001 798.337 568.806 786.147 568.806C785.865 568.806 785.582 568.802 785.302 568.796C784.737 568.784 784.177 568.758 783.624 568.719C772.623 567.941 764.077 561.837 764.077 546.375C764.077 530.376 784.516 510.185 786.056 508.688L786.058 508.686C786.117 508.627 786.147 508.598 786.147 508.598C786.147 508.598 808.217 529.75 808.217 546.375Z" fill="#9500E6"/>
<path d="M785.343 566.263L793.415 554.982L785.322 567.502L785.302 568.796C784.737 568.784 784.177 568.758 783.624 568.719L784.494 552.086L784.488 551.956L784.502 551.934L784.585 550.361L776.472 537.81L784.609 549.183L784.63 549.516L785.286 536.949L778.341 523.979L785.371 534.744L786.056 508.688L786.058 508.598V508.686L785.944 529.232L792.858 521.086L785.916 531.002L785.733 542.254L792.19 531.455L785.706 543.91L785.605 550.166L794.975 535.134L785.568 552.348L785.343 566.263Z" fill="#3F3D56"/>
<path d="M92.1107 432.841C92.1107 449.468 82.2306 455.273 70.0411 455.273C69.7587 455.273 69.4764 455.269 69.1961 455.263C68.6314 455.251 68.0707 455.225 67.5182 455.186C56.5169 454.408 47.9714 448.304 47.9714 432.841C47.9714 416.843 68.41 396.652 69.9497 395.154L69.9517 395.152C70.0106 395.093 70.0411 395.065 70.0411 395.065C70.0411 395.065 92.1107 416.217 92.1107 432.841Z" fill="#9500E6"/>
<path d="M69.2367 452.729L77.3089 441.448L69.2164 453.969L69.1961 455.263C68.6314 455.251 68.0707 455.224 67.5183 455.186L68.3876 438.553L68.3815 438.423L68.3958 438.401L68.479 436.828L60.3662 424.277L68.5034 435.649L68.5237 435.983L69.1798 423.416L62.2349 410.446L69.2651 421.211L69.9497 395.154L69.9517 395.065V395.152L69.838 415.699L76.7524 407.553L69.8095 417.468L69.6267 428.721L76.0841 417.921L69.6003 430.377L69.4987 436.633L78.8689 421.601L69.4622 438.815L69.2367 452.729Z" fill="#3F3D56"/>
</svg>
