<svg xmlns="http://www.w3.org/2000/svg" xmlns:xlink="http://www.w3.org/1999/xlink" viewBox="0 0 737.05 761.18"><defs><style>.cls-1{fill:#c215ab;}.cls-2{fill:#7c00bf;}.cls-3{fill:#fff;}.cls-4{fill:url(#Gradiente_sem_nome_5);}</style><linearGradient id="Gradiente_sem_nome_5" x1="249.18" y1="719.22" x2="556.91" y2="719.22" gradientUnits="userSpaceOnUse"><stop offset="0" stop-color="#c215ab"/><stop offset="1" stop-color="#7c00bf"/></linearGradient></defs><g id="Camada_2" data-name="Camada 2"><g id="Camada_1-2" data-name="Camada 1"><path class="cls-1" d="M402.2,77.36l0,214.6c-9.7-40.29-20.78-119.81-26.95-161.51a30.3,30.3,0,0,0-18-24.26c-3.34-1.5-4.17-5-5.62-8.37-19.16-44.45-58.1-65.31-70.45-80.49-7.22,17,.51,67.72,2.77,88.72,1.81,16.77,9,13.83,12.94,20.79-27.49,25.45-31.28,66.54-45.05,100.51,4.85,2.89,22.41,11.32,33,12.93-8.55,4.22-28.65,14.45-40.61,20.68,17.22,9.64,57.21,21.28,74.36,30.87,4.18-9.82,11.72-16.42,16.1-26.71,11,39.57,18.31,74.07,29.24,113.55-40.32-23.44-28.63-16-52.27-55.42-3.2-5-15.31-10.8-20.5-13.71-26.38-15-53-29.58-79.05-45.07,17.25-44.66,43.07-92.63,57.08-137.86-1.6-6-2.54-7.62-2.56-13.89C266.53,72.34,265.09,37.11,281,0c19.53,24,70.14,46.66,90.61,69.76C379.43,77.71,391.11,77.41,402.2,77.36Z" transform="translate(-40.59)"/><path class="cls-1" d="M318.9,204.1c7.65,2.71,15.3,5.4,22.93,8.13,6.17,2.21,12.28,4.59,18.49,6.68a8.12,8.12,0,0,1,5.75,6.19c2.44,10.27,4.81,20.57,7.44,31.87a44.92,44.92,0,0,0-16.92-12c-6.08-2.45-12.19-4.89-18.46-6.77-5.95-1.79-9.89-5-11.8-11.11-2.36-7.55-5.36-14.9-8.08-22.34Z" transform="translate(-40.59)"/><path class="cls-1" d="M402.08,344.89l.18,33.78c-3.51,0-6.42.09-11,0-8.48-5.59-15-16.18-16.46-26.57a6.3,6.3,0,0,1,6.23-7.23Z" transform="translate(-40.59)"/><path class="cls-2" d="M571,99c-14.67,23-26.74,26.74-40.69,28.64l18.25,3.12c-19,17.36-39.22,28.32-61,41.61,37.56,20.53-22.19,58.86-28.42,18-32.39,22.85,48,57,52.68-20.17,6.65,27.09,2.32,55.9-30.31,59.06-6.5,2-29.19-2.93-30.12,2.66-9,19.94-13.31,40.31-23.09,60,0-.06,0-214.57,0-214.57,21.76-1.32,45.11-9.65,65.82,1-4,9.73-25.15,48.9-25,49C506.08,65.39,541.31,34,590.79.48c-2.09,28.28-16.41,92.42-43.21,97.73C552.54,98.79,565.72,98.4,571,99Z" transform="translate(-40.59)"/><path class="cls-2" d="M581.12,239.37c-1-2.62-4.87-5-6.1-8.25-6.34,24.13-12.79,45.65-29.68,64.37-2.92-4.88-3.28-10.64-6.19-15.5-11.95,22-30.26,40.62-53.08,51.69-.76-1.87-1.39-3.41-2-4.95s-1.31-3.09-2.27-5.32c-16.93,19.32-36.65,38-53.51,57.26,0,0,.25-33.63.32-33.72,14.34-23.18,37.67-41.43,59.2-57.67,15.33-11.57,30.8-23,45.85-34.89,19-15,41.84-30.28,35.28-58.31-1.83-7.83-14.68-23.22-8.68-30.8,7.07-8.95,19-16.28,27.66-23.77a6.82,6.82,0,0,1,1.38-.61A299.52,299.52,0,0,1,581.12,239.37Z" transform="translate(-40.59)"/><path class="cls-3" d="M232.35,495.68a55.94,55.94,0,0,1-17,40.58,60.84,60.84,0,0,1-18.65,12.21A57.45,57.45,0,0,1,173.93,553H99.08a17.45,17.45,0,0,0-13.8,6.52,23.69,23.69,0,0,0-5.57,16v14.8a7.46,7.46,0,0,0,2.2,5.48A7.36,7.36,0,0,0,87.35,598H219.41a7.69,7.69,0,0,1,5.59,2.33,7.54,7.54,0,0,1,2.35,5.55v19.24A7.54,7.54,0,0,1,225,630.7a7.69,7.69,0,0,1-5.59,2.33H48.53a8,8,0,0,1-7.94-7.94V575.38a56.59,56.59,0,0,1,17.06-40.59,61,61,0,0,1,18.67-12.2A57.73,57.73,0,0,1,99.12,518h75a18,18,0,0,0,14-6.47,23.1,23.1,0,0,0,5.73-15.88,23.64,23.64,0,0,0-5.73-16,17.85,17.85,0,0,0-14-6.62H60.88a7.86,7.86,0,0,1-5.59-2.21,7.15,7.15,0,0,1-2.35-5.44V446A8,8,0,0,1,60.88,438H174.12A57,57,0,0,1,197,442.59a59.79,59.79,0,0,1,18.42,12.35,57.39,57.39,0,0,1,12.41,18.38A56.45,56.45,0,0,1,232.35,495.68Z" transform="translate(-40.59)"/><path class="cls-3" d="M499.27,630.82a7.3,7.3,0,0,1-5.4,2.21H462.35a10,10,0,0,1-4.72-1.47q-2.65-1.47-1.47-1.47l-51.31-62.94-54,62.94A7.07,7.07,0,0,1,344.7,633H314.64a7.32,7.32,0,0,1-5.4-2.21,7.4,7.4,0,0,1-2.18-5.44V446a8,8,0,0,1,2.18-5.59,7.11,7.11,0,0,1,5.4-2.35H338a7.11,7.11,0,0,1,5.39,2.35,8,8,0,0,1,2.19,5.59V576l54.85-57.65a7.5,7.5,0,0,1,6-2.79,7.59,7.59,0,0,1,5.75,3.09l50.72,55.88V446a8,8,0,0,1,2.18-5.59,7.13,7.13,0,0,1,5.4-2.35h23.36a7.09,7.09,0,0,1,5.39,2.35,7.93,7.93,0,0,1,2.2,5.59V625.38A7.38,7.38,0,0,1,499.27,630.82Z" transform="translate(-40.59)"/><path class="cls-3" d="M566.46,535.68a102.2,102.2,0,0,1,8.24-40.88,104.76,104.76,0,0,1,22.65-33.39A107.25,107.25,0,0,1,631,438.91a106.39,106.39,0,0,1,82.06,0,105.61,105.61,0,0,1,33.53,22.5,108.12,108.12,0,0,1,22.65,33.39,103.9,103.9,0,0,1,0,81.76,105.38,105.38,0,0,1-56.18,55.59,106.39,106.39,0,0,1-82.06,0,108.42,108.42,0,0,1-33.67-22.36,103.24,103.24,0,0,1-30.89-74.11Zm40,0a69.2,69.2,0,0,0,5.15,26.61,68.15,68.15,0,0,0,14.12,21.77,66.17,66.17,0,0,0,20.88,14.56,63.82,63.82,0,0,0,50.88,0,66.33,66.33,0,0,0,20.89-14.56,68.46,68.46,0,0,0,14.11-21.77,71.35,71.35,0,0,0,0-53.23,67.8,67.8,0,0,0-35-36.47,62.2,62.2,0,0,0-50.88,0,67.89,67.89,0,0,0-35,36.47A69.25,69.25,0,0,0,606.46,535.68Z" transform="translate(-40.59)"/><path d="M249.18,678.42h9.21V751.5h45.92V760H249.18Z" transform="translate(-40.59)"/><path d="M398.5,760h-9.91L379,738.45H334.62L324.94,760H315.5l37.19-82.17h8.62Zm-41.62-71.33-18.65,41.61h37.19Z" transform="translate(-40.59)"/><path d="M461.35,679.88a26.49,26.49,0,0,1,8.38,4.07,17.66,17.66,0,0,1,5.35,6.42,18.89,18.89,0,0,1,1.86,8.45,20.91,20.91,0,0,1-1.1,7.11,18.94,18.94,0,0,1-3,5.36,19.65,19.65,0,0,1-4.12,3.9,27.07,27.07,0,0,1-4.71,2.63,35.94,35.94,0,0,1,6.8,2.74,22.29,22.29,0,0,1,5.53,4,17.64,17.64,0,0,1,3.72,5.59,18.87,18.87,0,0,1,1.4,7.46,21,21,0,0,1-2.09,9.45,19.52,19.52,0,0,1-6,7A28.63,28.63,0,0,1,464,758.5a45.29,45.29,0,0,1-12.1,1.51H415.75V678.42h34.67A37.85,37.85,0,0,1,461.35,679.88ZM462.51,711q5.22-3.75,5.23-11a11.79,11.79,0,0,0-4.65-9.83q-4.65-3.63-13.37-3.63H425v28.21H449Q457.27,714.79,462.51,711Zm4.42,37a12.62,12.62,0,0,0,5.35-10.88,11.91,11.91,0,0,0-5.46-10.48q-5.47-3.69-16.17-3.68H425v28.9h27.32Q461.58,751.85,466.93,748Z" transform="translate(-40.59)"/><path d="M509.11,704a10.48,10.48,0,0,0,3.39,4.27,24.7,24.7,0,0,0,6.76,3.5,80.23,80.23,0,0,0,11.07,3q13.63,3,20.11,8.41T556.91,738a21.61,21.61,0,0,1-7.79,16.93,25.71,25.71,0,0,1-8.77,4.67,37,37,0,0,1-11.19,1.63A48.79,48.79,0,0,1,511.27,758a50.61,50.61,0,0,1-15.44-9.78l5.71-6.76a47.73,47.73,0,0,0,12.94,8.68,37.07,37.07,0,0,0,15,2.86q8.28,0,13.23-3.85a12.24,12.24,0,0,0,5-10.16,13.38,13.38,0,0,0-.94-5.19,10.42,10.42,0,0,0-3.27-4.15,23.38,23.38,0,0,0-6.48-3.38,81.06,81.06,0,0,0-10.58-2.92,84,84,0,0,1-12.21-3.51,30.23,30.23,0,0,1-8.59-4.78,17.59,17.59,0,0,1-5-6.54,22,22,0,0,1-1.64-8.87,20.2,20.2,0,0,1,2-9,20.72,20.72,0,0,1,5.59-7.06,27.21,27.21,0,0,1,8.51-4.67,32.57,32.57,0,0,1,10.72-1.7,45.43,45.43,0,0,1,15.68,2.47,47.74,47.74,0,0,1,13,7.44l-5.36,7.11a39.84,39.84,0,0,0-11.49-6.76,34.93,34.93,0,0,0-12.06-2.1,23,23,0,0,0-7.17,1.05,18.13,18.13,0,0,0-5.48,2.81,11.92,11.92,0,0,0-3.49,4.2,11.52,11.52,0,0,0-1.23,5.25A14,14,0,0,0,509.11,704Z" transform="translate(-40.59)"/><path class="cls-4" d="M249.18,678.42h9.21V751.5h45.92V760H249.18Z" transform="translate(-40.59)"/><path class="cls-4" d="M398.5,760h-9.91L379,738.45H334.62L324.94,760H315.5l37.19-82.17h8.62Zm-41.62-71.33-18.65,41.61h37.19Z" transform="translate(-40.59)"/><path class="cls-4" d="M461.35,679.88a26.49,26.49,0,0,1,8.38,4.07,17.66,17.66,0,0,1,5.35,6.42,18.89,18.89,0,0,1,1.86,8.45,20.91,20.91,0,0,1-1.1,7.11,18.94,18.94,0,0,1-3,5.36,19.65,19.65,0,0,1-4.12,3.9,27.07,27.07,0,0,1-4.71,2.63,35.94,35.94,0,0,1,6.8,2.74,22.29,22.29,0,0,1,5.53,4,17.64,17.64,0,0,1,3.72,5.59,18.87,18.87,0,0,1,1.4,7.46,21,21,0,0,1-2.09,9.45,19.52,19.52,0,0,1-6,7A28.63,28.63,0,0,1,464,758.5a45.29,45.29,0,0,1-12.1,1.51H415.75V678.42h34.67A37.85,37.85,0,0,1,461.35,679.88ZM462.51,711q5.22-3.75,5.23-11a11.79,11.79,0,0,0-4.65-9.83q-4.65-3.63-13.37-3.63H425v28.21H449Q457.27,714.79,462.51,711Zm4.42,37a12.62,12.62,0,0,0,5.35-10.88,11.91,11.91,0,0,0-5.46-10.48q-5.47-3.69-16.17-3.68H425v28.9h27.32Q461.58,751.85,466.93,748Z" transform="translate(-40.59)"/><path class="cls-4" d="M509.11,704a10.48,10.48,0,0,0,3.39,4.27,24.7,24.7,0,0,0,6.76,3.5,80.23,80.23,0,0,0,11.07,3q13.63,3,20.11,8.41T556.91,738a21.61,21.61,0,0,1-7.79,16.93,25.71,25.71,0,0,1-8.77,4.67,37,37,0,0,1-11.19,1.63A48.79,48.79,0,0,1,511.27,758a50.61,50.61,0,0,1-15.44-9.78l5.71-6.76a47.73,47.73,0,0,0,12.94,8.68,37.07,37.07,0,0,0,15,2.86q8.28,0,13.23-3.85a12.24,12.24,0,0,0,5-10.16,13.38,13.38,0,0,0-.94-5.19,10.42,10.42,0,0,0-3.27-4.15,23.38,23.38,0,0,0-6.48-3.38,81.06,81.06,0,0,0-10.58-2.92,84,84,0,0,1-12.21-3.51,30.23,30.23,0,0,1-8.59-4.78,17.59,17.59,0,0,1-5-6.54,22,22,0,0,1-1.64-8.87,20.2,20.2,0,0,1,2-9,20.72,20.72,0,0,1,5.59-7.06,27.21,27.21,0,0,1,8.51-4.67,32.57,32.57,0,0,1,10.72-1.7,45.43,45.43,0,0,1,15.68,2.47,47.74,47.74,0,0,1,13,7.44l-5.36,7.11a39.84,39.84,0,0,0-11.49-6.76,34.93,34.93,0,0,0-12.06-2.1,23,23,0,0,0-7.17,1.05,18.13,18.13,0,0,0-5.48,2.81,11.92,11.92,0,0,0-3.49,4.2,11.52,11.52,0,0,0-1.23,5.25A14,14,0,0,0,509.11,704Z" transform="translate(-40.59)"/></g></g></svg>