<svg width="886" height="624" viewBox="0 0 886 624" fill="none" xmlns="http://www.w3.org/2000/svg">
<g clip-path="url(#clip0_55_275)">
<path d="M196.33 62.5067H139.828C134.396 62.5117 129.188 64.6706 125.346 68.5096C121.505 72.3485 119.345 77.5539 119.34 82.9831V144.207C118.618 144.164 117.896 144.1 117.184 144.013C103.798 142.606 91.0718 137.489 80.4401 129.239C69.8083 120.99 61.6938 109.936 57.0115 97.3235C52.3291 84.7113 51.2651 71.0426 53.9394 57.8584C56.6137 44.6742 62.92 32.4988 72.1473 22.7051C81.3745 12.9113 93.1557 5.88866 106.163 2.42886C119.17 -1.03093 132.885 -0.790266 145.762 3.12374C158.64 7.03774 170.167 14.4694 179.045 24.5809C187.922 34.6923 193.797 47.0814 196.006 60.3513C196.125 61.0626 196.233 61.7847 196.33 62.5067Z" fill="#F2F2F2"/>
<path d="M863.356 60.3516H139.828C133.824 60.3581 128.069 62.7446 123.823 66.9875C119.578 71.2304 117.19 76.983 117.184 82.9833V464.49C117.19 470.49 119.578 476.243 123.823 480.486C128.069 484.729 133.824 487.115 139.828 487.122H863.356C869.36 487.115 875.115 484.729 879.361 480.486C883.606 476.243 885.993 470.49 886 464.49V82.9833C885.993 76.983 883.606 71.2304 879.361 66.9875C875.115 62.7446 869.36 60.3581 863.356 60.3516ZM883.843 464.49C883.839 469.919 881.678 475.125 877.837 478.964C873.996 482.803 868.788 484.961 863.356 484.966H139.828C134.396 484.961 129.188 482.803 125.346 478.964C121.505 475.125 119.345 469.919 119.34 464.49V82.9833C119.345 77.5542 121.505 72.3488 125.346 68.5098C129.188 64.6708 134.396 62.5119 139.828 62.507H863.356C868.788 62.5119 873.996 64.6708 877.837 68.5098C881.678 72.3488 883.839 77.5542 883.843 82.9833V464.49Z" fill="#3F3D56"/>
<path d="M827.773 122.179H175.411C175.125 122.179 174.851 122.065 174.649 121.863C174.446 121.661 174.333 121.387 174.333 121.101C174.333 120.815 174.446 120.541 174.649 120.339C174.851 120.137 175.125 120.023 175.411 120.023H827.773C828.059 120.023 828.333 120.137 828.535 120.339C828.737 120.541 828.851 120.815 828.851 121.101C828.851 121.387 828.737 121.661 828.535 121.863C828.333 122.065 828.059 122.179 827.773 122.179Z" fill="#3F3D56"/>
<path d="M359.798 440.78C359.512 440.78 359.237 440.667 359.035 440.464C358.833 440.262 358.719 439.988 358.719 439.702V85.1382C358.719 84.8524 358.833 84.5783 359.035 84.3762C359.237 84.1741 359.512 84.0605 359.798 84.0605C360.084 84.0605 360.358 84.1741 360.56 84.3762C360.762 84.5783 360.876 84.8524 360.876 85.1382V439.702C360.876 439.988 360.762 440.262 360.56 440.464C360.358 440.667 360.084 440.78 359.798 440.78V440.78Z" fill="#3F3D56"/>
<path d="M522.618 440.78C522.332 440.78 522.058 440.667 521.856 440.464C521.654 440.262 521.54 439.988 521.54 439.702V85.1382C521.54 84.8524 521.654 84.5783 521.856 84.3762C522.058 84.1741 522.332 84.0605 522.618 84.0605C522.904 84.0605 523.179 84.1741 523.381 84.3762C523.583 84.5783 523.697 84.8524 523.697 85.1382V439.702C523.697 439.988 523.583 440.262 523.381 440.464C523.179 440.667 522.904 440.78 522.618 440.78V440.78Z" fill="#3F3D56"/>
<path d="M685.439 440.78C685.153 440.78 684.879 440.667 684.677 440.464C684.475 440.262 684.361 439.988 684.361 439.702V85.1382C684.361 84.8524 684.475 84.5783 684.677 84.3762C684.879 84.1741 685.153 84.0605 685.439 84.0605C685.725 84.0605 686 84.1741 686.202 84.3762C686.404 84.5783 686.518 84.8524 686.518 85.1382V439.702C686.518 439.988 686.404 440.262 686.202 440.464C686 440.667 685.725 440.78 685.439 440.78V440.78Z" fill="#3F3D56"/>
<path d="M255.113 233.417H215.713C214.426 233.416 213.193 232.904 212.283 231.995C211.373 231.086 210.862 229.853 210.86 228.567V182.097C210.862 180.811 211.373 179.579 212.283 178.67C213.193 177.76 214.426 177.249 215.713 177.248H255.113C256.4 177.249 257.633 177.76 258.543 178.67C259.452 179.579 259.964 180.811 259.965 182.097V228.567C259.964 229.853 259.452 231.086 258.543 231.995C257.633 232.904 256.4 233.416 255.113 233.417V233.417Z" fill="#9500E6"/>
<path d="M311.184 365.974H271.783C270.497 365.973 269.264 365.461 268.354 364.552C267.444 363.643 266.933 362.41 266.931 361.124V314.654C266.933 313.369 267.444 312.136 268.354 311.227C269.264 310.317 270.497 309.806 271.783 309.805H311.184C312.47 309.806 313.704 310.317 314.613 311.227C315.523 312.136 316.035 313.369 316.036 314.654V361.124C316.035 362.41 315.523 363.643 314.613 364.552C313.704 365.461 312.47 365.973 311.184 365.974V365.974Z" fill="#9500E6"/>
<path d="M438.422 261.437H399.021C397.735 261.436 396.501 260.924 395.592 260.015C394.682 259.106 394.17 257.873 394.169 256.587V210.117C394.17 208.831 394.682 207.599 395.592 206.69C396.501 205.78 397.735 205.269 399.021 205.268H438.422C439.708 205.269 440.941 205.78 441.851 206.69C442.761 207.599 443.272 208.831 443.274 210.117V256.587C443.272 257.873 442.761 259.106 441.851 260.015C440.941 260.924 439.708 261.436 438.422 261.437V261.437Z" fill="#9500E6"/>
<path d="M603.399 210.785H563.999C562.712 210.784 561.479 210.272 560.569 209.363C559.659 208.454 559.148 207.221 559.146 205.935V159.465C559.148 158.18 559.659 156.947 560.569 156.038C561.479 155.129 562.712 154.617 563.999 154.616H603.399C604.685 154.617 605.919 155.129 606.828 156.038C607.738 156.947 608.25 158.18 608.251 159.465V205.936C608.25 207.221 607.738 208.454 606.828 209.363C605.919 210.272 604.685 210.784 603.399 210.785V210.785Z" fill="#9500E6"/>
<path d="M755.437 210.785H716.036C714.75 210.784 713.516 210.272 712.607 209.363C711.697 208.454 711.186 207.221 711.184 205.935V159.465C711.186 158.18 711.697 156.947 712.607 156.038C713.516 155.129 714.75 154.617 716.036 154.616H755.437C756.723 154.617 757.957 155.129 758.866 156.038C759.776 156.947 760.288 158.18 760.289 159.465V205.936C760.288 207.221 759.776 208.454 758.866 209.363C757.957 210.272 756.723 210.784 755.437 210.785V210.785Z" fill="#9500E6"/>
<path d="M825.525 223.717H786.125C784.838 223.716 783.605 223.204 782.695 222.295C781.786 221.386 781.274 220.153 781.273 218.868V172.398C781.274 171.112 781.786 169.879 782.695 168.97C783.605 168.061 784.838 167.549 786.125 167.548H825.525C826.812 167.549 828.045 168.061 828.955 168.97C829.864 169.879 830.376 171.112 830.378 172.398V218.868C830.376 220.153 829.864 221.386 828.955 222.295C828.045 223.204 826.812 223.716 825.525 223.717Z" fill="#E6E6E6"/>
<path d="M794.255 306.701H754.855C753.568 306.699 752.335 306.188 751.425 305.279C750.516 304.369 750.004 303.137 750.002 301.851V255.381C750.004 254.095 750.516 252.862 751.425 251.953C752.335 251.044 753.568 250.533 754.855 250.531H794.255C795.542 250.533 796.775 251.044 797.685 251.953C798.594 252.862 799.106 254.095 799.107 255.381V301.851C799.106 303.137 798.594 304.369 797.685 305.279C796.775 306.188 795.542 306.699 794.255 306.701Z" fill="#E6E6E6"/>
<path d="M660.548 289.458H621.147C619.861 289.456 618.628 288.945 617.718 288.035C616.808 287.126 616.297 285.894 616.295 284.608V238.138C616.297 236.852 616.808 235.619 617.718 234.71C618.628 233.801 619.861 233.29 621.147 233.288H660.548C661.834 233.29 663.068 233.801 663.977 234.71C664.887 235.619 665.399 236.852 665.4 238.138V284.608C665.399 285.894 664.887 287.126 663.977 288.035C663.068 288.945 661.834 289.456 660.548 289.458Z" fill="#FF6584"/>
<path d="M583.99 306.701H544.589C543.303 306.699 542.069 306.188 541.16 305.279C540.25 304.369 539.739 303.137 539.737 301.851V255.381C539.739 254.095 540.25 252.862 541.16 251.953C542.069 251.044 543.303 250.533 544.589 250.531H583.99C585.276 250.533 586.51 251.044 587.419 251.953C588.329 252.862 588.841 254.095 588.842 255.381V301.851C588.841 303.137 588.329 304.369 587.419 305.279C586.51 306.188 585.276 306.699 583.99 306.701V306.701Z" fill="#E6E6E6"/>
<path d="M419.012 379.984H379.612C378.325 379.983 377.092 379.472 376.182 378.562C375.273 377.653 374.761 376.42 374.76 375.135V328.665C374.761 327.379 375.273 326.146 376.182 325.237C377.092 324.328 378.325 323.816 379.612 323.815H419.012C420.299 323.816 421.532 324.328 422.442 325.237C423.352 326.146 423.863 327.379 423.865 328.665V375.135C423.863 376.421 423.352 377.653 422.442 378.562C421.532 379.472 420.299 379.983 419.012 379.984Z" fill="#E6E6E6"/>
<path d="M219.53 318.555H180.129C178.843 318.554 177.61 318.042 176.7 317.133C175.79 316.224 175.279 314.991 175.277 313.705V267.235C175.279 265.95 175.79 264.717 176.7 263.808C177.61 262.899 178.843 262.387 180.129 262.386H219.53C220.816 262.387 222.05 262.899 222.959 263.808C223.869 264.717 224.381 265.95 224.382 267.235V313.706C224.381 314.991 223.869 316.224 222.959 317.133C222.05 318.042 220.816 318.554 219.53 318.555V318.555Z" fill="#FF6584"/>
<path d="M330.593 233.417H291.193C289.906 233.416 288.673 232.904 287.763 231.995C286.853 231.086 286.342 229.853 286.34 228.567V182.097C286.342 180.811 286.853 179.579 287.763 178.67C288.673 177.76 289.906 177.249 291.193 177.248H330.593C331.88 177.249 333.113 177.76 334.023 178.67C334.932 179.579 335.444 180.811 335.445 182.097V228.567C335.444 229.853 334.932 231.086 334.023 231.995C333.113 232.904 331.88 233.416 330.593 233.417V233.417Z" fill="#E6E6E6"/>
<path d="M298.335 104.537H236.873C235.729 104.537 234.632 104.083 233.823 103.275C233.014 102.466 232.56 101.37 232.56 100.226C232.56 99.083 233.014 97.9866 233.823 97.1781C234.632 96.3697 235.729 95.9155 236.873 95.9155H298.335C299.479 95.9155 300.576 96.3697 301.385 97.1781C302.194 97.9866 302.648 99.083 302.648 100.226C302.648 101.37 302.194 102.466 301.385 103.275C300.576 104.083 299.479 104.537 298.335 104.537Z" fill="#CCCCCC"/>
<path d="M471.939 104.537H410.477C409.333 104.537 408.236 104.083 407.427 103.275C406.618 102.466 406.164 101.37 406.164 100.226C406.164 99.083 406.618 97.9866 407.427 97.1781C408.236 96.3697 409.333 95.9155 410.477 95.9155H471.939C473.083 95.9155 474.18 96.3697 474.989 97.1781C475.798 97.9866 476.252 99.083 476.252 100.226C476.252 101.37 475.798 102.466 474.989 103.275C474.18 104.083 473.083 104.537 471.939 104.537Z" fill="#CCCCCC"/>
<path d="M634.76 104.537H573.298C572.154 104.537 571.057 104.083 570.248 103.275C569.439 102.466 568.985 101.37 568.985 100.226C568.985 99.083 569.439 97.9866 570.248 97.1781C571.057 96.3697 572.154 95.9155 573.298 95.9155H634.76C635.904 95.9155 637.001 96.3697 637.81 97.1781C638.619 97.9866 639.073 99.083 639.073 100.226C639.073 101.37 638.619 102.466 637.81 103.275C637.001 104.083 635.904 104.537 634.76 104.537Z" fill="#CCCCCC"/>
<path d="M786.798 104.537H725.336C724.192 104.537 723.095 104.083 722.286 103.275C721.477 102.466 721.023 101.37 721.023 100.226C721.023 99.083 721.477 97.9866 722.286 97.1781C723.095 96.3697 724.192 95.9155 725.336 95.9155H786.798C787.942 95.9155 789.039 96.3697 789.848 97.1781C790.657 97.9866 791.111 99.083 791.111 100.226C791.111 101.37 790.657 102.466 789.848 103.275C789.039 104.083 787.942 104.537 786.798 104.537Z" fill="#CCCCCC"/>
<path d="M160.674 420.187C159.097 420.033 157.572 419.534 156.208 418.727C154.844 417.92 153.673 416.824 152.779 415.516C151.884 414.208 151.288 412.72 151.031 411.157C150.775 409.593 150.864 407.992 151.293 406.467L123.654 380.752L138.267 377.047L165.446 399.079C167.962 399.97 170.063 401.751 171.353 404.087C172.642 406.423 173.029 409.15 172.441 411.752C171.852 414.353 170.33 416.649 168.161 418.204C165.992 419.759 163.329 420.464 160.674 420.187V420.187Z" fill="#FFB8B8"/>
<path d="M198.84 610.252H212.06L218.348 559.29H198.838L198.84 610.252Z" fill="#FFB8B8"/>
<path d="M237.555 622.519L196.008 622.521L196.007 606.477L221.502 606.476C225.759 606.476 229.842 608.166 232.853 611.175C235.863 614.183 237.554 618.264 237.555 622.519V622.519L237.555 622.519Z" fill="#2F2E41"/>
<path d="M108.2 600.713L120.976 604.112L140.17 556.481L121.317 551.466L108.2 600.713Z" fill="#FFB8B8"/>
<path d="M142.455 622.523L102.306 611.842L106.435 596.339L131.072 602.893C135.186 603.987 138.697 606.671 140.832 610.352C142.966 614.033 143.55 618.412 142.455 622.523V622.523V622.523Z" fill="#2F2E41"/>
<path d="M215.615 600.604H195.443C194.169 600.608 192.939 600.136 191.996 599.279C191.053 598.423 190.465 597.245 190.347 595.977L178.101 468.882C178.012 467.949 177.601 467.077 176.938 466.415C176.276 465.752 175.404 465.34 174.472 465.249C173.539 465.158 172.604 465.394 171.826 465.916C171.048 466.438 170.476 467.214 170.207 468.111L134.653 586.873C134.277 588.136 133.427 589.204 132.282 589.856C131.137 590.508 129.785 590.692 128.506 590.372L109.741 585.682C109.086 585.518 108.47 585.227 107.928 584.824C107.386 584.422 106.929 583.916 106.584 583.337C106.238 582.757 106.011 582.115 105.915 581.447C105.819 580.779 105.856 580.099 106.024 579.445C106.33 578.249 136.659 459.79 136.923 458.572C143.795 407.955 152.016 394.391 156.433 387.105C156.798 386.502 157.134 385.947 157.437 385.423C157.815 384.767 160.146 378.262 161.624 374.038C161.816 373.35 162.149 372.711 162.601 372.158C163.053 371.606 163.614 371.153 164.25 370.829C182.808 361.343 204.521 367.909 210.734 370.148C211.764 370.51 212.648 371.197 213.255 372.104C231.893 400.201 222.746 563.387 220.724 595.815C220.639 597.112 220.064 598.329 219.116 599.218C218.167 600.107 216.915 600.603 215.615 600.604V600.604Z" fill="#2F2E41"/>
<path d="M163.558 278.678C178.185 278.678 190.042 266.827 190.042 252.208C190.042 237.59 178.185 225.739 163.558 225.739C148.932 225.739 137.075 237.59 137.075 252.208C137.075 266.827 148.932 278.678 163.558 278.678Z" fill="#FFB8B8"/>
<path d="M160.752 379.177L160.562 378.992C160.205 378.647 124.919 344.097 129.485 312.149C131.439 298.484 142.501 289.753 161.476 286.897C168.447 285.863 175.557 287.377 181.5 291.163C187.443 294.949 191.819 300.752 193.824 307.504L212.586 371.611L160.752 379.177Z" fill="#CCCCCC"/>
<path d="M142.692 403.751L117.549 378.78C115.829 377.062 114.581 374.932 113.924 372.593C113.267 370.254 113.223 367.786 113.796 365.425L125.969 315.938C126.333 314.455 126.999 313.063 127.923 311.847C128.848 310.632 130.012 309.619 131.345 308.871C132.677 308.124 134.148 307.657 135.668 307.501C137.188 307.345 138.724 307.502 140.18 307.963C142.957 308.857 145.276 310.797 146.646 313.37C148.017 315.944 148.331 318.95 147.522 321.751L134.708 365.286L155.43 387.526L142.692 403.751Z" fill="#CCCCCC"/>
<path d="M277.555 318.529C276.89 319.967 275.918 321.242 274.707 322.264C273.495 323.286 272.075 324.03 270.545 324.444C269.015 324.858 267.412 324.932 265.851 324.66C264.289 324.388 262.806 323.777 261.506 322.87L227.94 340.258L229.423 325.488L259.181 307.082C260.849 305 263.224 303.603 265.855 303.154C268.486 302.706 271.19 303.237 273.455 304.648C275.72 306.059 277.388 308.252 278.144 310.81C278.899 313.368 278.69 316.114 277.555 318.529H277.555Z" fill="#FFB8B8"/>
<path d="M257.84 329.523L225.118 343.656C222.941 344.589 220.559 344.946 218.203 344.694C215.847 344.441 213.595 343.587 211.665 342.213L170.055 312.416C168.813 311.526 167.767 310.392 166.982 309.082C166.196 307.772 165.688 306.315 165.488 304.802C165.289 303.288 165.402 301.749 165.822 300.281C166.241 298.812 166.958 297.446 167.927 296.265C169.789 294.021 172.453 292.59 175.353 292.274C178.253 291.959 181.162 292.784 183.463 294.576L219.142 322.641L247.501 311.675L257.84 329.523Z" fill="#CCCCCC"/>
<path d="M167.949 260.69C171.216 256.599 177.32 256.379 181.808 253.68C187.687 250.145 190.117 242.245 188.223 235.655C186.328 229.064 180.741 223.928 174.336 221.472C167.931 219.015 160.804 218.985 154.047 220.172C143.987 221.94 134.082 226.633 127.946 234.796C121.81 242.958 120.248 254.912 125.809 263.476C128.365 267.412 132.31 270.661 133.331 275.241C134.67 281.254 130.45 287.054 125.929 291.241C120.778 296.011 114.869 300.006 110.357 305.384C105.844 310.761 102.835 318.107 104.894 324.817C106.619 330.439 111.64 334.58 117.145 336.654C122.65 338.729 128.646 339.028 134.528 339.143C140.24 339.255 146.307 339.116 151.119 336.038C156.27 332.743 159.02 326.491 159.223 320.382C159.426 314.273 157.384 308.288 154.646 302.821C153.015 299.563 151.117 296.406 150.033 292.928C148.949 289.449 148.761 285.502 150.497 282.299C152.323 278.931 156.015 276.901 159.775 276.162C159.971 276.124 160.177 276.09 160.393 276.059C161.463 275.92 162.494 275.566 163.423 275.018C164.352 274.47 165.16 273.739 165.798 272.87C166.436 272.001 166.892 271.011 167.137 269.961C167.381 268.911 167.411 267.823 167.222 266.761C166.794 264.375 166.831 262.09 167.949 260.69Z" fill="#2F2E41"/>
<path d="M521.058 611.38H507.838L501.55 560.418L521.06 560.419L521.058 611.38Z" fill="#A0616A"/>
<path d="M498.396 607.605H523.89V623.649H482.343C482.343 621.542 482.758 619.455 483.565 617.509C484.372 615.562 485.554 613.794 487.045 612.304C488.535 610.814 490.305 609.633 492.253 608.826C494.2 608.02 496.288 607.605 498.396 607.605Z" fill="#2F2E41"/>
<path d="M616.977 596.414L604.953 601.903L578.045 558.16L595.793 550.058L616.977 596.414Z" fill="#A0616A"/>
<path d="M594.794 602.391L617.984 591.804L624.653 606.398L586.862 623.65C585.986 621.733 585.496 619.663 585.421 617.558C585.346 615.452 585.686 613.352 586.423 611.378C587.159 609.404 588.278 607.594 589.714 606.052C591.15 604.51 592.876 603.266 594.794 602.391V602.391Z" fill="#2F2E41"/>
<path d="M578.479 439.549C579.746 438.596 580.788 437.377 581.532 435.979C582.277 434.58 582.705 433.035 582.787 431.453C582.87 429.871 582.604 428.29 582.009 426.821C581.414 425.353 580.504 424.033 579.343 422.954L594.883 387.713L575.141 391.057L563.411 424.009C561.727 426.079 560.86 428.693 560.976 431.358C561.092 434.023 562.182 436.553 564.039 438.468C565.897 440.384 568.392 441.552 571.054 441.751C573.715 441.95 576.357 441.166 578.479 439.549Z" fill="#A0616A"/>
<path d="M520.215 597.943H507.586C506.362 597.939 505.183 597.474 504.286 596.64C503.39 595.806 502.84 594.666 502.747 593.445L495.86 409.634C495.809 408.929 495.912 408.222 496.163 407.562C496.413 406.901 496.805 406.304 497.311 405.811C497.817 405.318 498.424 404.941 499.091 404.707C499.758 404.473 500.467 404.387 501.171 404.456L574.208 412.208C575.392 412.324 576.492 412.87 577.299 413.743C578.107 414.615 578.566 415.754 578.588 416.943L580.119 498.024C580.127 498.464 580.212 498.9 580.371 499.31L610.331 576.962C610.563 577.562 610.673 578.201 610.654 578.844C610.636 579.487 610.49 580.12 610.225 580.705C609.96 581.291 609.581 581.818 609.11 582.256C608.639 582.694 608.085 583.034 607.481 583.256L594.684 587.969C593.572 588.378 592.349 588.367 591.246 587.937C590.142 587.508 589.234 586.689 588.691 585.637L551.887 514.111C551.686 513.722 551.54 513.308 551.451 512.879L545.164 482.603C544.981 481.725 544.492 480.941 543.784 480.391C543.075 479.84 542.194 479.561 541.298 479.601C540.402 479.642 539.549 480 538.893 480.612C538.238 481.223 537.821 482.049 537.719 482.939L525.036 593.645C524.901 594.828 524.335 595.92 523.446 596.713C522.557 597.505 521.407 597.943 520.215 597.943V597.943Z" fill="#2F2E41"/>
<path d="M526.504 265.911C541.13 265.911 552.987 254.06 552.987 239.442C552.987 224.823 541.13 212.972 526.504 212.972C511.877 212.972 500.02 224.823 500.02 239.442C500.02 254.06 511.877 265.911 526.504 265.911Z" fill="#A0616A"/>
<path d="M544.666 426.441C526.706 426.243 509.174 420.935 494.124 411.139L493.866 410.961L493.893 410.649L504.023 292.732C504.372 288.731 506.159 284.992 509.053 282.206C511.947 279.42 515.752 277.776 519.765 277.577C532.894 276.974 550.529 277.735 559.97 284.762C574.236 295.382 581.112 311.374 578.835 328.638C574.112 364.438 579.462 412.73 580.088 418.119L580.133 418.507L579.777 418.67C568.779 423.784 556.796 426.436 544.666 426.441V426.441Z" fill="#9500E6"/>
<path d="M579.965 418.318C579.219 418.317 578.481 418.161 577.798 417.86C577.115 417.559 576.501 417.12 575.997 416.57L570.203 410.254C569.577 409.567 569.139 408.731 568.929 407.826C568.72 406.921 568.747 405.978 569.007 405.086L582.217 360.4L562.118 318.215C561.18 316.241 560.95 314.003 561.467 311.879C561.923 310.014 562.934 308.332 564.366 307.053C565.799 305.775 567.585 304.96 569.49 304.717C571.395 304.473 573.329 304.813 575.037 305.691C576.745 306.568 578.147 307.943 579.057 309.633L606.332 353.864C607.44 355.659 608.09 357.697 608.226 359.802C608.361 361.906 607.978 364.011 607.109 365.933L584.885 415.146C584.519 415.959 583.956 416.669 583.247 417.211C582.538 417.753 581.706 418.11 580.824 418.249C580.54 418.295 580.253 418.318 579.965 418.318V418.318Z" fill="#9500E6"/>
<path d="M393.291 332.959C394.563 333.904 396.027 334.56 397.579 334.878C399.132 335.197 400.736 335.172 402.278 334.805C403.82 334.437 405.262 333.736 406.504 332.751C407.745 331.766 408.756 330.521 409.463 329.103L447.676 334.056L438.894 316.071L403.953 314.125C401.492 313.094 398.737 313.001 396.212 313.865C393.687 314.728 391.566 316.487 390.252 318.808C388.938 321.13 388.521 323.853 389.081 326.461C389.641 329.069 391.139 331.381 393.291 332.959V332.959Z" fill="#A0616A"/>
<path d="M477.517 342.781C476.852 342.781 476.187 342.735 475.528 342.644L415.413 334.311C414.43 334.176 413.497 333.799 412.697 333.213C411.897 332.628 411.255 331.853 410.829 330.958C410.692 330.669 410.577 330.371 410.486 330.064H410.486C410.254 329.269 410.189 328.433 410.295 327.611C410.402 326.789 410.678 325.998 411.106 325.288L416.081 317.045C416.616 316.164 417.369 315.435 418.267 314.928C419.165 314.421 420.178 314.153 421.209 314.15H421.217L473.617 314.21L512.753 279.167C514.573 277.54 516.898 276.589 519.338 276.473C521.48 276.374 523.601 276.926 525.423 278.056C527.244 279.186 528.68 280.842 529.541 282.805C530.402 284.767 530.647 286.944 530.245 289.049C529.843 291.154 528.812 293.088 527.287 294.595L488.237 338.003C486.886 339.507 485.233 340.709 483.386 341.532C481.539 342.356 479.539 342.781 477.517 342.781V342.781Z" fill="#9500E6"/>
<path d="M529.514 262.99C531.935 257.392 533.983 249.936 529.341 245.978C526.648 243.682 522.77 243.677 519.242 243.392C509.303 242.587 499.072 238.017 494.214 229.313C489.356 220.61 492.069 207.668 501.234 203.741C507.412 201.095 514.494 202.898 520.961 204.73L540.376 210.233C546.145 211.868 552.202 213.671 556.355 217.994C562.979 224.889 562.484 236.543 557.223 244.525C551.962 252.507 544.039 260.832 534.969 263.862L529.514 262.99Z" fill="#2F2E41"/>
<path d="M797.374 624H1.28396C1.11504 624 0.947693 623.968 0.791493 623.903C0.635294 623.839 0.493326 623.745 0.373711 623.626C0.254095 623.506 0.159187 623.365 0.0944325 623.209C0.0296775 623.053 -0.00366211 622.886 -0.00366211 622.717C-0.00366211 622.548 0.0296775 622.381 0.0944325 622.225C0.159187 622.069 0.254095 621.927 0.373711 621.808C0.493326 621.689 0.635294 621.594 0.791493 621.53C0.947693 621.466 1.11504 621.433 1.28396 621.434H797.374C797.543 621.433 797.71 621.466 797.867 621.53C798.023 621.594 798.165 621.689 798.284 621.808C798.404 621.927 798.499 622.069 798.564 622.225C798.629 622.381 798.662 622.548 798.662 622.717C798.662 622.886 798.629 623.053 798.564 623.209C798.499 623.365 798.404 623.506 798.284 623.626C798.165 623.745 798.023 623.839 797.867 623.903C797.71 623.968 797.543 624 797.374 624V624Z" fill="#3F3D56"/>
</g>
<defs>
<clipPath id="clip0_55_275">
<rect width="886" height="624" fill="white"/>
</clipPath>
</defs>
</svg>
