<svg width="445" height="536" viewBox="0 0 445 536" fill="none" xmlns="http://www.w3.org/2000/svg">
<g clip-path="url(#clip0_57_2)">
<path d="M3.18134 256.361C4.81642 259.092 7.03035 261.43 9.66717 263.212C12.304 264.994 15.2996 266.177 18.4429 266.676C21.5863 267.176 24.8009 266.98 27.8604 266.103C30.9199 265.226 33.7499 263.689 36.1509 261.6L103.263 300.084L100.762 259.966L37.4145 229.571C33.6373 225.771 28.597 223.488 23.2488 223.155C17.9005 222.822 12.6159 224.462 8.39621 227.764C4.17653 231.066 1.315 235.802 0.353867 241.072C-0.607265 246.343 0.398772 251.783 3.18134 256.361Z" fill="#FFB8B8"/>
<path d="M197.478 410.526C177.57 438.384 178.283 484.99 183.837 536H277.961L282.054 526.453L287.51 536H376.178C376.178 536 369.358 406.434 357.08 402.343C344.803 398.251 197.478 410.526 197.478 410.526Z" fill="#2F2E41"/>
<path d="M277.961 119.471C304.33 119.471 325.706 98.0992 325.706 71.7361C325.706 45.373 304.33 24.0015 277.961 24.0015C251.593 24.0015 230.217 45.373 230.217 71.7361C230.217 98.0992 251.593 119.471 277.961 119.471Z" fill="#FFB8B8"/>
<path d="M312.469 131.855L321.806 149.747L386.384 178.529L369.409 342.771L362.264 359.779L366.125 374.549L356.818 385.45C366.16 393.901 367.346 402.747 362.264 411.898L332.526 418.709C332.526 418.709 167.173 433.41 181.109 407.798C196.335 379.814 200.212 297.17 166.599 253.006C138.062 215.513 159.971 166.861 159.971 166.861L227.661 146.635L252.559 131.855L312.469 131.855Z" fill="#3F3D56"/>
<path d="M299.158 1.8126C299.382 1.33799 299.743 0.941259 300.195 0.67336C300.646 0.405462 301.168 0.278622 301.692 0.309137C279.834 -0.998094 256.81 1.54903 238.523 13.5919C234.093 16.5096 229.916 19.9896 225.095 22.1061C224.868 22.2083 224.671 22.3676 224.523 22.5686C224.375 22.7695 224.282 23.0052 224.252 23.2529C224.222 23.5005 224.257 23.7516 224.353 23.9818C224.449 24.2119 224.603 24.4134 224.8 24.5666L225.329 24.9817C225.538 25.1455 225.698 25.3634 225.792 25.6118C225.886 25.8602 225.909 26.1295 225.861 26.3904C225.812 26.6513 225.693 26.8939 225.516 27.0917C225.339 27.2896 225.111 27.4351 224.857 27.5125C224.592 27.5932 224.356 27.7478 224.176 27.9582C223.996 28.1686 223.881 28.4259 223.842 28.6999C223.804 28.974 223.845 29.2532 223.96 29.5049C224.075 29.7565 224.26 29.9699 224.492 30.1201L228.55 32.7422C228.754 32.8719 228.923 33.0509 229.04 33.2627C229.157 33.4745 229.219 33.7123 229.221 33.9543C229.222 34.1964 229.162 34.4348 229.048 34.6479C228.933 34.861 228.766 35.0418 228.563 35.1737C228.219 35.3859 227.859 35.5689 227.484 35.7207C227.251 35.8082 227.045 35.9542 226.885 36.1446C226.724 36.3351 226.616 36.5636 226.57 36.808C226.524 37.0525 226.542 37.3048 226.621 37.5404C226.701 37.7761 226.84 37.9873 227.025 38.1536C228.782 39.7176 230.13 41.6876 230.951 43.8918C232.304 47.4077 232.546 51.2369 232.775 54.9969C234.173 49.5716 240.095 46.378 245.689 46.0535C251.283 45.729 256.739 47.5744 262.183 48.901C274.041 51.7819 286.356 52.2556 298.4 50.2939C294.31 58.4997 297.76 68.2876 301.232 76.7733L312.469 71.9577C327.902 63.2477 317.152 100.092 311.382 105.151C323.163 109.234 353.998 63.9114 344.079 46.7194C338.919 37.7764 342.581 26.2421 332.437 17.7603C327.465 12.5273 317.538 14.8532 312.469 10.5039C310.474 8.79212 313.515 4.21244 310.773 3.21438C309.863 2.88288 299.308 1.47849 299.158 1.8126Z" fill="#2F2E41"/>
<path d="M218.286 151.256C209.525 190.143 187.055 280.939 164.258 299.928C162.812 301.293 161.078 302.316 159.185 302.923C79.0531 322.44 53.3773 272.655 53.3773 272.655C53.3773 272.655 74.8516 262.192 75.3962 241.741L118.703 255.176L156.454 170.237L162.009 165.056L162.04 165.025L218.286 151.256Z" fill="#3F3D56"/>
<path d="M389.14 510.359C391.434 508.154 393.217 505.472 394.363 502.503C395.509 499.535 395.99 496.351 395.772 493.176C395.554 490.001 394.642 486.913 393.101 484.129C391.561 481.344 389.428 478.932 386.853 477.061L409.317 403.042L370.774 414.474L355.351 483.011C352.493 487.543 351.398 492.966 352.273 498.252C353.147 503.537 355.931 508.319 360.096 511.69C364.26 515.061 369.517 516.787 374.87 516.542C380.223 516.297 385.301 514.097 389.14 510.359V510.359Z" fill="#FFB8B8"/>
<path d="M368.58 174.389L386.384 178.53C386.384 178.53 459.976 321.684 442.242 348.961C424.509 376.238 402.783 466.545 402.783 466.545C402.783 466.545 370.651 460.158 358.374 443.792L380.857 336.687L357.666 246.673L368.58 174.389Z" fill="#3F3D56"/>
<path d="M30.795 386.969L31.4343 156.409C31.4526 151.743 33.3215 147.274 36.631 143.984C39.9405 140.693 44.4205 138.849 49.088 138.857L223.247 139.34C227.914 139.358 232.384 141.226 235.675 144.535C238.966 147.844 240.81 152.323 240.803 156.99L240.163 387.549C240.145 392.216 238.276 396.685 234.967 399.975C231.657 403.266 227.177 405.109 222.51 405.102L48.351 404.619C43.6836 404.601 39.2139 402.732 35.9227 399.423C32.6314 396.115 30.7873 391.636 30.795 386.969V386.969Z" fill="#E6E6E6"/>
<path d="M44.3472 317.367L44.7582 169.142C44.7752 164.772 46.5254 160.587 49.6249 157.505C52.7245 154.424 56.9201 152.697 61.2914 152.704L210.966 153.119C215.338 153.136 219.524 154.886 222.606 157.985C225.689 161.084 227.416 165.278 227.409 169.649L226.84 374.815C226.823 379.186 225.072 383.371 221.973 386.453C218.873 389.534 214.677 391.261 210.306 391.254L117.585 390.997C98.1144 390.921 79.4684 383.126 65.7384 369.323C52.0083 355.519 44.3153 336.834 44.3472 317.367V317.367Z" fill="white"/>
<path d="M193.816 217.813H77.108C75.2508 217.813 73.4697 217.076 72.1565 215.763C70.8432 214.45 70.1055 212.669 70.1055 210.812C70.1055 208.955 70.8432 207.175 72.1565 205.862C73.4697 204.549 75.2508 203.811 77.108 203.811H193.816C195.673 203.811 197.454 204.549 198.767 205.862C200.081 207.175 200.818 208.955 200.818 210.812C200.818 212.669 200.081 214.45 198.767 215.763C197.454 217.076 195.673 217.813 193.816 217.813V217.813Z" fill="#9500E6"/>
<path d="M102.784 185.53H77.1079C75.2508 185.53 73.4697 184.793 72.1565 183.48C70.8432 182.167 70.1055 180.386 70.1055 178.529C70.1055 176.673 70.8432 174.892 72.1565 173.579C73.4697 172.266 75.2508 171.528 77.1079 171.528H102.784C104.641 171.528 106.422 172.266 107.735 173.579C109.048 174.892 109.786 176.673 109.786 178.529C109.786 180.386 109.048 182.167 107.735 183.48C106.422 184.793 104.641 185.53 102.784 185.53Z" fill="#9500E6"/>
<path d="M193.816 250.096H77.108C75.2508 250.096 73.4697 249.358 72.1565 248.045C70.8432 246.732 70.1055 244.952 70.1055 243.095C70.1055 241.238 70.8432 239.457 72.1565 238.144C73.4697 236.831 75.2508 236.094 77.108 236.094H193.816C195.673 236.094 197.454 236.831 198.767 238.144C200.081 239.457 200.818 241.238 200.818 243.095C200.818 244.952 200.081 246.732 198.767 248.045C197.454 249.358 195.673 250.096 193.816 250.096Z" fill="#9500E6"/>
<path d="M193.816 282.379H77.108C75.2508 282.379 73.4697 281.641 72.1565 280.328C70.8432 279.015 70.1055 277.234 70.1055 275.378C70.1055 273.521 70.8432 271.74 72.1565 270.427C73.4697 269.114 75.2508 268.376 77.108 268.376H193.816C195.673 268.376 197.454 269.114 198.767 270.427C200.081 271.74 200.818 273.521 200.818 275.378C200.818 277.234 200.081 279.015 198.767 280.328C197.454 281.641 195.673 282.379 193.816 282.379V282.379Z" fill="#9500E6"/>
<path d="M184.373 367.442C199.761 367.442 212.236 354.97 212.236 339.585C212.236 324.2 199.761 311.728 184.373 311.728C168.984 311.728 156.51 324.2 156.51 339.585C156.51 354.97 168.984 367.442 184.373 367.442Z" fill="#9500E6"/>
<path d="M180.572 354.083C180.09 354.083 179.616 353.971 179.186 353.756C178.755 353.541 178.381 353.228 178.092 352.843L170.491 342.71C170.246 342.384 170.068 342.014 169.966 341.619C169.865 341.225 169.842 340.814 169.9 340.411C169.957 340.008 170.093 339.62 170.301 339.27C170.508 338.919 170.783 338.613 171.109 338.369C171.434 338.124 171.805 337.947 172.2 337.846C172.595 337.745 173.005 337.723 173.408 337.78C173.812 337.838 174.199 337.975 174.55 338.183C174.9 338.391 175.206 338.666 175.45 338.992L180.423 345.621L193.196 326.466C193.421 326.126 193.711 325.833 194.049 325.606C194.388 325.378 194.768 325.219 195.167 325.139C195.567 325.058 195.979 325.057 196.379 325.136C196.779 325.215 197.16 325.372 197.499 325.598C197.839 325.824 198.13 326.115 198.357 326.454C198.583 326.793 198.741 327.173 198.82 327.573C198.9 327.973 198.899 328.385 198.819 328.785C198.739 329.185 198.581 329.565 198.353 329.903L183.151 352.703C182.876 353.115 182.506 353.456 182.072 353.696C181.638 353.936 181.153 354.068 180.658 354.082C180.629 354.082 180.6 354.083 180.572 354.083Z" fill="white"/>
<path d="M124.958 85.1819C132.263 85.1819 138.185 79.2612 138.185 71.9576C138.185 64.6541 132.263 58.7334 124.958 58.7334C117.653 58.7334 111.731 64.6541 111.731 71.9576C111.731 79.2612 117.653 85.1819 124.958 85.1819Z" fill="#F2F2F2"/>
<path d="M76.7189 465.573C84.0239 465.573 89.9458 459.652 89.9458 452.349C89.9458 445.045 84.0239 439.125 76.7189 439.125C69.4139 439.125 63.492 445.045 63.492 452.349C63.492 459.652 69.4139 465.573 76.7189 465.573Z" fill="#F2F2F2"/>
<path d="M380.938 136.523C388.243 136.523 394.165 130.602 394.165 123.299C394.165 115.995 388.243 110.075 380.938 110.075C373.633 110.075 367.711 115.995 367.711 123.299C367.711 130.602 373.633 136.523 380.938 136.523Z" fill="#F2F2F2"/>
</g>
<defs>
<clipPath id="clip0_57_2">
<rect width="445" height="536" fill="white"/>
</clipPath>
</defs>
</svg>
